<svg xmlns="http://www.w3.org/2000/svg" viewBox="0 0 398.07 52.27"><defs><style>.cls-1{fill:#fff;}.cls-2{fill:#2bd6c4;}</style></defs><title>FIR300-EyeHealth1st_Campaign-Logo-FC-RGB-Reversed</title><g id="Layer_2" data-name="Layer 2"><g id="Layer_1-2" data-name="Layer 1"><path class="cls-1" d="M122.54,32.29a6.47,6.47,0,0,0,4.59-1.76l6,4.23c-2.52,3.17-6.34,4.68-10.83,4.68-8.71,0-14.1-5.79-14.1-13.25a13,13,0,0,1,13.4-13.34c7.55,0,13,5.69,13,13.24a13.21,13.21,0,0,1-.35,3.12H116.9C117.91,31.63,120.13,32.29,122.54,32.29Zm3.93-8.87a4.58,4.58,0,0,0-4.73-3.52,4.81,4.81,0,0,0-4.94,3.52Z"/><path class="cls-1" d="M161.89,13.55l-8.62,24.78c-2.67,7.66-7.45,10.83-15.21,10.48V41c3.58,0,5.14-.75,6.25-3L134.23,13.55h9.37l5.09,14.61,3.93-14.61Z"/><path class="cls-1" d="M176.11,32.29a6.43,6.43,0,0,0,4.58-1.76l6.05,4.23c-2.52,3.17-6.35,4.68-10.83,4.68-8.71,0-14.1-5.79-14.1-13.25a13,13,0,0,1,13.4-13.34c7.55,0,13,5.69,13,13.24a13.21,13.21,0,0,1-.35,3.12H170.47C171.48,31.63,173.69,32.29,176.11,32.29ZM180,23.42a4.58,4.58,0,0,0-4.73-3.52,4.81,4.81,0,0,0-4.94,3.52Z"/><path class="cls-2" d="M216.15,23.68V38.74h-8.36v-14c0-2.72-1.61-4-3.78-4-2.57,0-4.13,1.57-4.13,4.59v13.4h-8.36V3.48h8.36V16.07a8.21,8.21,0,0,1,7-3.22C212.07,12.85,216.15,16.42,216.15,23.68Z"/><path class="cls-2" d="M233.56,32.29a6.47,6.47,0,0,0,4.58-1.76l6.05,4.23c-2.52,3.17-6.35,4.68-10.83,4.68-8.72,0-14.11-5.79-14.11-13.25a13,13,0,0,1,13.4-13.34c7.56,0,13,5.69,13,13.24a12.72,12.72,0,0,1-.36,3.12H227.92C228.92,31.63,231.14,32.29,233.56,32.29Zm3.93-8.87a4.59,4.59,0,0,0-4.74-3.52,4.79,4.79,0,0,0-4.93,3.52Z"/><path class="cls-2" d="M275.1,13.55V38.74h-8.36V36.42a8.83,8.83,0,0,1-7.15,3c-6.75,0-11.84-5.74-11.84-13.3s5.09-13.29,11.84-13.29a8.8,8.8,0,0,1,7.15,3V13.55Zm-8.36,12.59a5.29,5.29,0,1,0-10.57,0,5.29,5.29,0,1,0,10.57,0Z"/><path class="cls-2" d="M279.17,2h8.37V38.74h-8.37Z"/><path class="cls-2" d="M303,21.56v7.3c0,2.37,1.86,2.52,5.24,2.32v7.56c-10.28,1.25-13.6-1.92-13.6-9.68v-7.5h-3.78v-8h3.78V9L303,6.5v7.05h5.24v8Z"/><path class="cls-2" d="M337.1,23.68V38.74h-8.36v-14c0-2.72-1.62-4-3.78-4-2.57,0-4.13,1.57-4.13,4.59v13.4h-8.36V3.48h8.36V16.07a8.19,8.19,0,0,1,7-3.22C333,12.85,337.1,16.42,337.1,23.68Z"/><path class="cls-1" d="M353.86,3.48V38.74h-9V13l-6.15,1.56L336.54,6.9l9.57-3.42Z"/><path class="cls-1" d="M379.29,31c0,6.29-5.74,8.46-10.88,8.46-5.29,0-9.27-1.71-11.28-6l7.3-3.68a3.82,3.82,0,0,0,3.93,2.77c1.46,0,2.27-.45,2.27-1.36,0-2.62-12.29-1-12.29-9.87,0-5.69,5-8.46,10.12-8.46,4.54,0,8.32,1.71,10.38,5.84l-7,3.17a3.37,3.37,0,0,0-3.12-2.16c-1.16,0-1.87.45-1.87,1.2C366.8,23.68,379.29,21.41,379.29,31Z"/><path class="cls-1" d="M392.84,21.56v7.3c0,2.37,1.86,2.52,5.23,2.32v7.56c-10.27,1.25-13.6-1.92-13.6-9.68v-7.5H380.7v-8h3.77V9l8.37-2.52v7.05h5.23v8Z"/><path class="cls-1" d="M0,26.13a52.53,52.53,0,0,1,90.83,0A52.51,52.51,0,0,1,45.41,52.27,52.49,52.49,0,0,1,0,26.13Zm65.5,0A20.09,20.09,0,1,0,45.41,46.22,20.08,20.08,0,0,0,65.5,26.13Z"/><polygon class="cls-2" points="53.73 15.73 49.42 20.04 45.12 24.34 40.81 28.65 36.5 24.34 32.2 28.65 36.5 32.95 40.81 37.26 45.12 32.95 49.42 28.65 53.73 24.34 58.03 20.04 53.73 15.73"/></g></g></svg>