<?xml version="1.0" encoding="UTF-8"?>
<svg width="19px" height="19px" viewBox="0 0 19 19" version="1.1" xmlns="http://www.w3.org/2000/svg" xmlns:xlink="http://www.w3.org/1999/xlink">
    <!-- Generator: Sketch 53 (72520) - https://sketchapp.com -->
    <title>Fill 1</title>
    <desc>Created with Sketch.</desc>
    <g id="Symbols" stroke="none" stroke-width="1" fill="none" fill-rule="evenodd">
        <g id="Nav-/-footer-/-desktop" transform="translate(-165.000000, -153.000000)" fill="#FFFFFF">
            <g id="Social" transform="translate(165.000000, 153.000000)">
                <path d="M18.9395808,18.9395808 L14.7225632,18.9395808 L14.7225632,11.837238 C14.7225632,11.2782552 14.4677374,10.8014828 13.9580764,10.4069051 C13.4484155,10.0123273 12.9141015,9.81504316 12.3551156,9.81504316 C11.7961328,9.81504316 11.3522427,10.0123273 11.0234294,10.4069051 C10.6946131,10.8014828 10.5302112,11.2782552 10.5302112,11.837238 L10.5302112,18.9395808 L6.31319359,18.9395808 L6.31319359,6.31319359 L10.5302112,6.31319359 L10.5302112,8.43403206 C10.875464,7.85860656 11.4262175,7.40649667 12.1824908,7.07768345 C12.938764,6.74886708 13.6128205,6.5844652 14.2046856,6.5844652 C15.5199416,6.5844652 16.6378914,7.04890476 17.5585697,7.97780597 C18.4792479,8.90670402 18.9395808,10.0205439 18.9395808,11.3193604 L18.9395808,18.9395808 Z M4.21701761,18.9395808 L0,18.9395808 L0,6.31319359 L4.21701761,6.31319359 L4.21701761,18.9395808 Z M2.09617756,0 C2.6880423,0 3.18947591,0.205507078 3.60049322,0.616521233 C4.01151053,1.02753855 4.21701761,1.52897342 4.21701761,2.12083847 C4.21701761,2.69626397 4.01151053,3.18947591 3.60049322,3.60049322 C3.18947591,4.01151053 2.6880423,4.21701761 2.09617756,4.21701761 C1.52075332,4.21701761 1.02754012,4.01151053 0.616522811,3.60049322 C0.205505563,3.18947591 0,2.69626397 0,2.12083847 C0,1.52897342 0.205505563,1.02753855 0.616522811,0.616521233 C1.02754012,0.205507078 1.52075332,0 2.09617756,0 Z" id="Fill-1"></path>
            </g>
        </g>
    </g>
</svg>