<?xml version="1.0" encoding="UTF-8"?>
<svg width="21px" height="18px" viewBox="0 0 21 18" version="1.1" xmlns="http://www.w3.org/2000/svg" xmlns:xlink="http://www.w3.org/1999/xlink">
    <!-- Generator: Sketch 53 (72520) - https://sketchapp.com -->
    <title>Twitter</title>
    <desc>Created with Sketch.</desc>
    <g id="Symbols" stroke="none" stroke-width="1" fill="none" fill-rule="evenodd">
        <g id="Nav-/-footer-/-desktop" transform="translate(-254.000000, -154.000000)" fill="#FFFFFF">
            <g id="Social" transform="translate(165.000000, 153.000000)">
                <path d="M109.420794,1.33276729 C108.58759,1.8529685 107.666916,2.23129666 106.682883,2.43372529 C105.89902,1.55134408 104.778736,1 103.538462,1 C101.161082,1 99.2317037,3.03466726 99.2317037,5.54397488 C99.2317037,5.90038768 99.2687101,6.24584281 99.3427229,6.57861011 C95.7620751,6.38886931 92.5879369,4.58200634 90.4617521,1.829323 C90.0905668,2.50293166 89.8786212,3.28438691 89.8786212,4.11659351 C89.8786212,5.69219186 90.6389341,7.08323988 91.7956639,7.89814488 C91.0902998,7.87622953 90.4247457,7.66976387 89.8427362,7.33180609 L89.8427362,7.38717119 C89.8427362,9.5896639 91.3280378,11.427093 93.3005901,11.8429079 C92.9394975,11.9496011 92.5582196,12.003236 92.165167,12.003236 C91.8876191,12.003236 91.6167997,11.9755535 91.3543908,11.9224953 C91.9027581,13.7270514 93.4929111,15.0413957 95.3785545,15.0765756 C93.9044669,16.2957611 92.0457373,17.022428 90.0277681,17.022428 C89.6801324,17.022428 89.3364216,17.0016661 89,16.9601423 C90.9063893,18.2473807 93.1721891,19 95.6045177,19 C103.530051,19 107.862601,12.0770562 107.862601,6.07167345 C107.862601,5.87385858 107.859237,5.67662042 107.851948,5.48284259 C108.693563,4.84210695 109.424719,4.04219666 110,3.13097946 C109.228473,3.49200602 108.397512,3.7365352 107.526179,3.84611195 C108.416015,3.28438691 109.098951,2.39393163 109.420794,1.33276729" id="Twitter"></path>
            </g>
        </g>
    </g>
</svg>